# xmcd CD database file
#
# Track frame offsets:
#	150
#	14358
#	34781
#	47797
#	61703
#	76581
#	88256
#	105073
#	120469
#	136341
#	152501
#	169921
#	191836
#	209305
#	224544
#	240139
#	254244
#	266050
#
# Disc length: 3729 seconds
#
# Revision: 4
# Processed by: cddbd v1.5.2PL0 Copyright (c) Steve Scherf et al.
# Submitted via: CDex 1.51
#
DISCID=ef0e8f12
DTITLE=Various Artist - 50 Years of Country - (1990 - 2000) - Disc1
DYEAR=2000
DGENRE=Country
TTITLE0=Billy Dean - Billy the Kid - 1991
TTITLE1=Suzi Bogguss - Letting go - 1992
TTITLE2=Dean Miller - Wake up and smell the whiskey - 1993
TTITLE3=Hall Ketchum - Hearts are gonna roll - 1993
TTITLE4=Sawyer Brown - Thank God for you - 1993
TTITLE5=Palomino Road - Why baby why - 1993
TTITLE6=Steve Wariner - Get Back - 1969
TTITLE7=Tim McGraw - I like it, I love it - 1995
TTITLE8=Jeff Carson - The car - 1995
TTITLE9=John Berry - Standing on the edge of goodbye - 1995
TTITLE10=Leann Rimes - Unchained melody - 1996
TTITLE11=Wynonna - To be loved by you - 1996
TTITLE12=David Kersh - Another you - 1996
TTITLE13=Deana Carter - We danced anyway - 1996
TTITLE14=Jo Dee Messina - Heads Carolina, Tails California - 1996
TTITLE15=Trace Adkins - I left something turned on at home - 1997
TTITLE16=Emilio - I'd love you to love me - 1997
TTITLE17=George Ducas - Long trail of tears - 1997
EXTD=YEAR: 2000
EXTT0=
EXTT1=
EXTT2=
EXTT3=
EXTT4=
EXTT5=
EXTT6=
EXTT7=
EXTT8=
EXTT9=
EXTT10=
EXTT11=
EXTT12=
EXTT13=
EXTT14=
EXTT15=
EXTT16=
EXTT17=
PLAYORDER=
